# Blender v2.80 (sub 75) OBJ File: ''
# www.blender.org
mtllib cude.mtl
o Cube_Cube.001
v -1.000000 0.849623 1.000000
v 1.000000 0.849623 1.000000
v -1.000000 0.846513 -1.000000
v 1.000000 0.846513 -1.000000
v -0.839326 1.000000 0.849623
v -1.000000 0.849623 1.000000
v -1.000000 0.846513 -1.000000
v -0.839326 1.000000 -0.846513
v 1.000000 0.849623 1.000000
v 0.847267 1.000000 0.849623
v 0.847267 1.000000 -0.846513
v 1.000000 0.846513 -1.000000
v -1.000000 -0.829586 1.000000
v -1.000000 -0.829586 -1.000000
v 1.000000 -0.820007 1.000000
v 1.000000 -0.820007 -1.000000
v -0.829586 -1.000000 0.816760
v -1.000000 -0.829586 1.000000
v 1.000000 -0.820007 1.000000
v 0.820007 -1.000000 0.816760
v -1.000000 -0.829586 -1.000000
v -0.829586 -1.000000 -0.808507
v 0.820007 -1.000000 -0.808507
v 1.000000 -0.820007 -1.000000
vt 0.648913 0.519186
vt 0.854916 0.519186
vt 0.854916 0.731203
vt 0.648913 0.731203
vt 0.146302 0.535377
vt 0.352501 0.535377
vt 0.352501 0.727095
vt 0.146302 0.727095
vt 0.875000 0.500000
vt 0.625000 0.500000
vt 0.625000 0.500000
vt 0.875000 0.500000
vt 0.875000 0.519186
vt 0.875000 0.731203
vt 0.397499 0.750000
vt 0.397499 0.500000
vt 0.397499 0.500000
vt 0.397499 0.750000
vt 0.606203 0.750000
vt 0.605814 0.500000
vt 0.625000 0.750000
vt 0.875000 0.750000
vt 0.875000 0.750000
vt 0.625000 0.750000
vt 0.606203 0.750000
vt 0.606203 1.000000
vt 0.396302 1.000000
vt 0.396302 1.000000
vt 0.396302 0.000000
vt 0.606203 0.000000
vt 0.606203 0.000000
vt 0.605814 0.250000
vt 0.605814 0.250000
vt 0.396302 0.250000
vt 0.605814 0.500000
vt 0.352501 0.750000
vt 0.146302 0.750000
vt 0.396302 0.250000
vt 0.375000 0.477501
vt 0.375000 0.271302
vt 0.125000 0.500000
vt 0.125000 0.750000
vt 0.125000 0.750000
vt 0.125000 0.500000
vn 0.0000 1.0000 0.0000
vn 0.0000 -1.0000 0.0000
vn 0.0000 0.7071 -0.7071
vn -0.6871 0.7266 -0.0006
vn 0.7071 -0.7071 0.0000
vn 0.7052 0.7090 -0.0006
vn 0.0000 0.7071 0.7071
vn 0.0000 0.0000 1.0000
vn -1.0000 0.0000 0.0000
vn 1.0000 0.0000 0.0000
vn 0.0019 -0.7228 0.6911
vn 0.0000 0.0000 -1.0000
vn 0.0019 -0.7378 -0.6750
vn -0.7071 -0.7071 0.0000
usemtl None
s off
f 11/1/1 8/2/1 5/3/1 10/4/1
f 22/5/2 23/6/2 20/7/2 17/8/2
f 7/9/3 8/2/3 11/1/3 12/10/3 4/11/3 3/12/3
f 5/3/4 8/2/4 7/13/4 6/14/4
f 19/15/5 20/7/5 23/6/5 24/16/5 16/17/5 15/18/5
f 9/19/6 12/20/6 11/1/6 10/4/6
f 9/21/7 10/4/7 5/3/7 6/22/7 1/23/7 2/24/7
f 19/15/8 15/18/8 2/25/8 1/26/8 13/27/8 18/28/8
f 13/29/9 1/30/9 6/31/9 7/32/9 3/33/9 14/34/9
f 16/17/10 4/35/10 12/20/10 9/19/10 2/25/10 15/18/10
f 17/8/11 20/7/11 19/36/11 18/37/11
f 21/38/12 14/34/12 3/33/12 4/35/12 16/17/12 24/16/12
f 21/38/13 24/16/13 23/39/13 22/40/13
f 21/41/14 22/5/14 17/8/14 18/42/14 13/43/14 14/44/14
